<?xml version="1.0" encoding="UTF-8"?>
<svg xmlns="http://www.w3.org/2000/svg" xmlns:xlink="http://www.w3.org/1999/xlink" width="112px" height="112px" viewBox="0 0 112 112" version="1.1">
<g id="surface1">
<path style=" stroke:none;fill-rule:nonzero;fill:rgb(0%,0%,0%);fill-opacity:1;" d="M 44.992188 102.214844 L 55.996094 72.125 L 52.589844 64.8125 L 59.40625 64.8125 L 55.996094 72.125 L 67 102.214844 L 60.085938 111.765625 C 74.105469 109.421875 96.480469 96.976562 107.332031 96.976562 L 103.535156 80.59375 C 102.367188 79.40625 100.996094 78.398438 99.410156 77.582031 C 91.445312 73.507812 83.210938 70.113281 74.882812 66.917969 C 74.257812 66.679688 73.519531 66.210938 73.265625 65.664062 C 72.578125 64.160156 72.113281 62.566406 71.617188 60.996094 C 71.320312 59.980469 71.054688 59.039062 69.949219 58.546875 C 69.648438 58.414062 69.382812 57.835938 69.382812 57.464844 C 69.445312 53.808594 68.59375 49.96875 71.308594 46.777344 C 71.390625 46.679688 71.425781 46.539062 71.484375 46.421875 C 72.949219 43.21875 73.203125 39.554688 75.246094 36.570312 C 75.300781 36.503906 75.316406 36.40625 75.324219 36.320312 C 75.5625 34.042969 75.804688 31.777344 76.003906 29.503906 C 76.023438 29.222656 75.773438 28.71875 75.535156 28.632812 C 74.40625 28.238281 74.46875 27.328125 74.476562 26.425781 C 74.476562 21.980469 74.476562 21.335938 74.46875 16.890625 C 74.46875 14.308594 73.707031 12.015625 71.753906 10.253906 C 69.535156 8.261719 67.242188 6.328125 64.964844 4.398438 C 63.867188 3.464844 63.769531 2.746094 64.796875 1.71875 C 65.257812 1.269531 65.835938 0.941406 66.371094 0.5625 C 66.25 0.382812 66.136719 0.210938 66.023438 0.0390625 C 65.328125 0.0390625 64.632812 -0.0546875 63.964844 0.0507812 C 61.4375 0.457031 58.902344 0.8125 56.421875 1.398438 C 51.683594 2.515625 47.085938 3.996094 43.242188 7.171875 C 40.613281 9.335938 38.511719 11.859375 38.246094 15.433594 C 38.117188 17.304688 38.132812 19.1875 38.117188 21.058594 C 38.097656 24.113281 38.144531 23.367188 38.074219 26.414062 C 38.058594 26.90625 37.78125 27.726562 37.433594 27.839844 C 36.203125 28.238281 36.164062 29.027344 36.332031 30.058594 C 36.453125 30.761719 36.367188 31.503906 36.519531 32.195312 C 36.945312 34.101562 37.398438 36.007812 37.949219 37.890625 C 38.351562 39.285156 39.148438 40.609375 39.375 42.035156 C 39.8125 44.875 40.871094 47.34375 42.789062 49.488281 C 43.101562 49.847656 43.34375 50.4375 43.304688 50.914062 C 43.152344 53.09375 42.933594 55.28125 42.636719 57.457031 C 42.574219 57.878906 42.128906 58.511719 41.765625 58.589844 C 40.3125 58.890625 40.09375 60.011719 39.742188 61.148438 C 39.285156 62.640625 38.800781 64.128906 38.222656 65.574219 C 38.042969 66.027344 37.589844 66.496094 37.144531 66.691406 C 34.5625 67.816406 31.929688 68.855469 29.328125 69.945312 C 26.558594 71.109375 23.757812 72.222656 21.058594 73.507812 C 18.269531 74.84375 15.566406 76.339844 12.835938 77.804688 C 11.226562 78.664062 9.726562 79.621094 8.46875 80.796875 L 4.671875 96.980469 C 23.175781 96.980469 32.835938 110.355469 52.085938 112.003906 Z M 74.035156 86.285156 L 90.023438 86.285156 L 90.023438 89.132812 L 74.035156 89.132812 Z M 74.035156 86.285156 "/>
</g>
</svg>
