<?xml version="1.0" encoding="UTF-8"?>
<svg xmlns="http://www.w3.org/2000/svg" xmlns:xlink="http://www.w3.org/1999/xlink" width="24px" height="24px" viewBox="0 0 24 24" version="1.1">
<g id="surface1">
<path style=" stroke:none;fill-rule:nonzero;fill:rgb(0%,0%,0%);fill-opacity:1;" d="M 9.1875 10.5 C 6.292969 10.5 3.9375 8.144531 3.9375 5.25 C 3.9375 2.355469 6.292969 0 9.1875 0 C 12.082031 0 14.4375 2.355469 14.4375 5.25 C 14.4375 8.144531 12.082031 10.5 9.1875 10.5 Z M 9.1875 1.5 C 7.121094 1.5 5.4375 3.183594 5.4375 5.25 C 5.4375 7.316406 7.121094 9 9.1875 9 C 11.253906 9 12.9375 7.316406 12.9375 5.25 C 12.9375 3.183594 11.253906 1.5 9.1875 1.5 Z M 9.1875 1.5 "/>
<path style=" stroke:none;fill-rule:nonzero;fill:rgb(0%,0%,0%);fill-opacity:1;" d="M 13.578125 24 L 3.230469 24 C 1.554688 24 0.1875 22.632812 0.1875 20.957031 C 0.1875 15.996094 4.226562 11.957031 9.1875 11.957031 C 10.886719 11.957031 12.546875 12.433594 13.976562 13.339844 C 14.328125 13.558594 14.433594 14.023438 14.210938 14.371094 C 13.992188 14.722656 13.527344 14.828125 13.179688 14.605469 C 11.984375 13.855469 10.605469 13.457031 9.1875 13.457031 C 5.050781 13.457031 1.6875 16.820312 1.6875 20.957031 C 1.6875 21.808594 2.378906 22.5 3.230469 22.5 L 13.578125 22.5 C 13.992188 22.5 14.328125 22.835938 14.328125 23.25 C 14.328125 23.664062 13.992188 24 13.578125 24 Z M 13.578125 24 "/>
<path style=" stroke:none;fill-rule:nonzero;fill:rgb(0%,0%,0%);fill-opacity:1;" d="M 18.5625 24 C 15.667969 24 13.3125 21.644531 13.3125 18.75 C 13.3125 15.855469 15.667969 13.5 18.5625 13.5 C 21.457031 13.5 23.8125 15.855469 23.8125 18.75 C 23.8125 21.644531 21.457031 24 18.5625 24 Z M 18.5625 15 C 16.496094 15 14.8125 16.683594 14.8125 18.75 C 14.8125 20.816406 16.496094 22.5 18.5625 22.5 C 20.628906 22.5 22.3125 20.816406 22.3125 18.75 C 22.3125 16.683594 20.628906 15 18.5625 15 Z M 18.5625 15 "/>
<path style=" stroke:none;fill-rule:nonzero;fill:rgb(0%,0%,0%);fill-opacity:1;" d="M 18.5625 14.25 C 16.078125 14.25 14.0625 16.265625 14.0625 18.75 C 14.0625 21.234375 16.078125 23.25 18.5625 23.25 C 21.046875 23.25 23.0625 21.234375 23.0625 18.75 C 23.0625 16.265625 21.046875 14.25 18.5625 14.25 Z M 20.0625 19.5 L 19.3125 19.5 L 19.3125 20.25 C 19.3125 20.664062 18.976562 21 18.5625 21 C 18.148438 21 17.8125 20.664062 17.8125 20.25 L 17.8125 19.5 L 17.0625 19.5 C 16.648438 19.5 16.3125 19.164062 16.3125 18.75 C 16.3125 18.335938 16.648438 18 17.0625 18 L 17.8125 18 L 17.8125 17.25 C 17.8125 16.835938 18.148438 16.5 18.5625 16.5 C 18.976562 16.5 19.3125 16.835938 19.3125 17.25 L 19.3125 18 L 20.0625 18 C 20.476562 18 20.8125 18.335938 20.8125 18.75 C 20.8125 19.164062 20.476562 19.5 20.0625 19.5 Z M 20.0625 19.5 "/>
</g>
</svg>
