<?xml version="1.0" encoding="UTF-8"?>
<svg xmlns="http://www.w3.org/2000/svg" xmlns:xlink="http://www.w3.org/1999/xlink" width="24px" height="24px" viewBox="0 0 24 24" version="1.1">
<g id="surface1">
<path style=" stroke:none;fill-rule:nonzero;fill:rgb(74.901962%,74.901962%,74.901962%);fill-opacity:1;" d="M 21.15625 10.738281 L 21.15625 7.894531 L 19.261719 7.894531 L 19.261719 10.738281 L 16.421875 10.738281 L 16.421875 12.632812 L 19.261719 12.632812 L 19.261719 15.472656 L 21.15625 15.472656 L 21.15625 12.632812 L 24 12.632812 L 24 10.738281 Z M 21.15625 10.738281 "/>
<path style=" stroke:none;fill-rule:nonzero;fill:rgb(74.901962%,74.901962%,74.901962%);fill-opacity:1;" d="M 11.246094 12.972656 C 12.824219 12.117188 13.894531 10.445312 13.894531 8.527344 C 13.894531 5.734375 11.632812 3.472656 8.84375 3.472656 C 6.050781 3.472656 3.789062 5.734375 3.789062 8.527344 C 3.789062 10.445312 4.859375 12.117188 6.4375 12.972656 C 3.128906 13.28125 0 16.542969 0 20.527344 L 17.683594 20.527344 C 17.683594 16.542969 14.554688 13.28125 11.246094 12.972656 Z M 11.246094 12.972656 "/>
</g>
</svg>
