<?xml version="1.0" encoding="UTF-8"?>
<svg xmlns="http://www.w3.org/2000/svg" xmlns:xlink="http://www.w3.org/1999/xlink" width="24px" height="24px" viewBox="0 0 24 24" version="1.1">
<g id="surface1">
<path style=" stroke:none;fill-rule:nonzero;fill:rgb(74.901962%,74.901962%,74.901962%);fill-opacity:1;" d="M 15.566406 7.253906 C 15.566406 5.285156 13.96875 3.691406 12 3.691406 C 10.03125 3.691406 8.433594 5.285156 8.433594 7.253906 C 8.433594 9.222656 10.03125 10.820312 12 10.820312 C 13.96875 10.820312 15.566406 9.222656 15.566406 7.253906 Z M 15.566406 7.253906 "/>
<path style=" stroke:none;fill-rule:nonzero;fill:rgb(74.901962%,74.901962%,74.901962%);fill-opacity:1;" d="M 16.53125 11.925781 L 15.691406 11.675781 L 12 15.371094 L 8.308594 11.675781 L 7.46875 11.925781 C 5.292969 12.578125 3.835938 14.539062 3.835938 16.808594 L 3.835938 21 L 20.164062 21 L 20.164062 16.808594 C 20.164062 14.539062 18.703125 12.578125 16.53125 11.925781 Z M 16.53125 11.925781 "/>
<path style=" stroke:none;fill-rule:nonzero;fill:rgb(74.901962%,74.901962%,74.901962%);fill-opacity:1;" d="M 16.214844 3 C 15.609375 3 15.03125 3.164062 14.523438 3.453125 C 15.753906 4.273438 16.566406 5.671875 16.566406 7.253906 C 16.566406 8.195312 16.28125 9.066406 15.792969 9.792969 C 15.929688 9.8125 16.074219 9.824219 16.214844 9.824219 C 18.101562 9.824219 19.628906 8.296875 19.628906 6.410156 C 19.628906 4.53125 18.101562 3 16.214844 3 Z M 16.214844 3 "/>
<path style=" stroke:none;fill-rule:nonzero;fill:rgb(74.901962%,74.901962%,74.901962%);fill-opacity:1;" d="M 20.53125 10.824219 L 19.714844 10.585938 L 18.519531 11.78125 C 20.152344 12.894531 21.164062 14.746094 21.164062 16.808594 L 21.164062 19.5 L 24 19.5 L 24 15.488281 C 24 13.324219 22.605469 11.449219 20.53125 10.824219 Z M 20.53125 10.824219 "/>
<path style=" stroke:none;fill-rule:nonzero;fill:rgb(74.901962%,74.901962%,74.901962%);fill-opacity:1;" d="M 9.476562 3.453125 C 8.96875 3.164062 8.390625 3 7.785156 3 C 5.898438 3 4.371094 4.53125 4.371094 6.410156 C 4.371094 8.296875 5.898438 9.824219 7.785156 9.824219 C 7.925781 9.824219 8.070312 9.8125 8.207031 9.792969 C 7.71875 9.066406 7.433594 8.195312 7.433594 7.253906 C 7.433594 5.671875 8.246094 4.273438 9.476562 3.453125 Z M 9.476562 3.453125 "/>
<path style=" stroke:none;fill-rule:nonzero;fill:rgb(74.901962%,74.901962%,74.901962%);fill-opacity:1;" d="M 4.285156 10.585938 L 3.476562 10.824219 L 3.46875 10.824219 C 1.394531 11.449219 0 13.324219 0 15.488281 L 0 19.5 L 2.835938 19.5 L 2.835938 16.808594 C 2.835938 14.746094 3.851562 12.894531 5.480469 11.78125 Z M 4.285156 10.585938 "/>
</g>
</svg>
