<?xml version="1.0" encoding="UTF-8"?>
<svg xmlns="http://www.w3.org/2000/svg" xmlns:xlink="http://www.w3.org/1999/xlink" width="24px" height="24px" viewBox="0 0 24 24" version="1.1">
<g id="surface1">
<path style=" stroke:none;fill-rule:nonzero;fill:rgb(74.901962%,74.901962%,74.901962%);fill-opacity:1;" d="M 8.894531 14.636719 L 1.710938 11.902344 C 1.421875 11.792969 1.402344 11.386719 1.683594 11.253906 L 21.976562 1.542969 C 22.261719 1.40625 22.566406 1.679688 22.460938 1.972656 L 15.679688 21.519531 C 15.589844 21.773438 15.257812 21.839844 15.078125 21.636719 L 9.03125 14.734375 C 8.996094 14.691406 8.949219 14.65625 8.894531 14.636719 Z M 8.894531 14.636719 "/>
<path style=" stroke:none;fill-rule:nonzero;fill:rgb(40.000001%,40.000001%,40.000001%);fill-opacity:1;" d="M 7.40625 14.070312 L 18.964844 4.660156 C 19.050781 4.589844 19.160156 4.714844 19.082031 4.789062 L 9.183594 14.585938 C 9.101562 14.667969 9.097656 14.800781 9.171875 14.890625 L 11.128906 17.125 L 7.960938 19.28125 C 7.726562 19.445312 7.40625 19.273438 7.40625 18.988281 Z M 7.40625 14.070312 "/>
</g>
</svg>
