<?xml version="1.0" encoding="UTF-8"?>
<svg xmlns="http://www.w3.org/2000/svg" xmlns:xlink="http://www.w3.org/1999/xlink" width="24px" height="24px" viewBox="0 0 24 24" version="1.1">
<g id="surface1">
<path style=" stroke:none;fill-rule:nonzero;fill:rgb(74.901962%,74.901962%,74.901962%);fill-opacity:1;" d="M 16.191406 2 L 7.808594 2 C 4.171875 2 2 4.171875 2 7.808594 L 2 16.179688 C 2 19.828125 4.171875 22 7.808594 22 L 16.179688 22 C 19.820312 22 21.988281 19.828125 21.988281 16.191406 L 21.988281 7.808594 C 22 4.171875 19.828125 2 16.191406 2 Z M 9.941406 13.269531 C 9.261719 14.289062 8.320312 15.121094 7.21875 15.671875 C 7.121094 15.71875 7 15.75 6.890625 15.75 C 6.609375 15.75 6.351562 15.601562 6.21875 15.339844 C 6.03125 14.96875 6.179688 14.519531 6.558594 14.328125 C 7.429688 13.898438 8.171875 13.238281 8.699219 12.441406 C 8.878906 12.171875 8.878906 11.828125 8.699219 11.558594 C 8.160156 10.761719 7.421875 10.101562 6.558594 9.671875 C 6.179688 9.488281 6.03125 9.039062 6.21875 8.660156 C 6.398438 8.289062 6.851562 8.140625 7.21875 8.328125 C 8.320312 8.878906 9.261719 9.710938 9.941406 10.730469 C 10.460938 11.5 10.460938 12.5 9.941406 13.269531 Z M 17 15.75 L 13 15.75 C 12.589844 15.75 12.25 15.410156 12.25 15 C 12.25 14.589844 12.589844 14.25 13 14.25 L 17 14.25 C 17.410156 14.25 17.75 14.589844 17.75 15 C 17.75 15.410156 17.410156 15.75 17 15.75 Z M 17 15.75 "/>
</g>
</svg>
