<?xml version="1.0" encoding="UTF-8"?>
<svg xmlns="http://www.w3.org/2000/svg" xmlns:xlink="http://www.w3.org/1999/xlink" width="24px" height="24px" viewBox="0 0 24 24" version="1.1">
<g id="surface1">
<path style=" stroke:none;fill-rule:evenodd;fill:rgb(74.901962%,74.901962%,74.901962%);fill-opacity:1;" d="M 2 6 C 2 4.34375 3.34375 3 5 3 L 19 3 C 20.65625 3 22 4.34375 22 6 L 22 18 C 22 19.65625 20.65625 21 19 21 L 5 21 C 3.34375 21 2 19.65625 2 18 Z M 7 7 C 6.449219 7 6 7.449219 6 8 C 6 8.550781 6.449219 9 7 9 L 12 9 C 12.550781 9 13 8.550781 13 8 C 13 7.449219 12.550781 7 12 7 Z M 15 7 C 14.449219 7 14 7.449219 14 8 C 14 8.550781 14.449219 9 15 9 L 17 9 C 17.550781 9 18 8.550781 18 8 C 18 7.449219 17.550781 7 17 7 Z M 7 11 C 6.449219 11 6 11.449219 6 12 C 6 12.550781 6.449219 13 7 13 L 8 13 C 8.550781 13 9 12.550781 9 12 C 9 11.449219 8.550781 11 8 11 Z M 11 11 C 10.449219 11 10 11.449219 10 12 C 10 12.550781 10.449219 13 11 13 L 17 13 C 17.550781 13 18 12.550781 18 12 C 18 11.449219 17.550781 11 17 11 Z M 7 15 C 6.449219 15 6 15.449219 6 16 C 6 16.550781 6.449219 17 7 17 L 12 17 C 12.550781 17 13 16.550781 13 16 C 13 15.449219 12.550781 15 12 15 Z M 15 15 C 14.449219 15 14 15.449219 14 16 C 14 16.550781 14.449219 17 15 17 L 17 17 C 17.550781 17 18 16.550781 18 16 C 18 15.449219 17.550781 15 17 15 Z M 15 15 "/>
</g>
</svg>
