<?xml version="1.0" encoding="UTF-8"?>
<svg xmlns="http://www.w3.org/2000/svg" xmlns:xlink="http://www.w3.org/1999/xlink" width="24px" height="24px" viewBox="0 0 24 24" version="1.1">
<g id="surface1">
<path style=" stroke:none;fill-rule:evenodd;fill:rgb(74.901962%,74.901962%,74.901962%);fill-opacity:1;" d="M 3 0 L 21 0 L 21 24 L 3 24 Z M 16.5 15 C 16.5 17.484375 14.484375 19.5 12 19.5 C 10.039062 19.5 8.375 18.246094 7.757812 16.5 L 10.5 16.5 L 10.5 13.5 L 7.757812 13.5 C 8.375 11.753906 10.039062 10.5 12 10.5 C 14.484375 10.5 16.5 12.515625 16.5 15 Z M 7.5 6 C 8.328125 6 9 5.328125 9 4.5 C 9 3.671875 8.328125 3 7.5 3 C 6.671875 3 6 3.671875 6 4.5 C 6 5.328125 6.671875 6 7.5 6 Z M 12 3 L 18 3 L 18 6 L 12 6 Z M 12 3 "/>
</g>
</svg>
