<?xml version="1.0" encoding="UTF-8"?>
<svg xmlns="http://www.w3.org/2000/svg" xmlns:xlink="http://www.w3.org/1999/xlink" width="24px" height="24px" viewBox="0 0 24 24" version="1.1">
<g id="surface1">
<path style=" stroke:none;fill-rule:nonzero;fill:rgb(74.901962%,74.901962%,74.901962%);fill-opacity:1;" d="M 14.929688 2.5 L 14.929688 8.398438 C 14.929688 8.839844 14.410156 9.058594 14.089844 8.769531 L 12.339844 7.160156 C 12.148438 6.980469 11.851562 6.980469 11.660156 7.160156 L 9.910156 8.761719 C 9.589844 9.058594 9.070312 8.828125 9.070312 8.398438 L 9.070312 2.5 C 9.070312 2.21875 9.289062 2 9.570312 2 L 14.429688 2 C 14.710938 2 14.929688 2.21875 14.929688 2.5 Z M 14.929688 2.5 "/>
<path style=" stroke:none;fill-rule:nonzero;fill:rgb(74.901962%,74.901962%,74.901962%);fill-opacity:1;" d="M 16.980469 2.058594 C 16.691406 2.019531 16.429688 2.269531 16.429688 2.558594 L 16.429688 8.578125 C 16.429688 9.339844 15.980469 10.027344 15.28125 10.339844 C 14.578125 10.640625 13.769531 10.507812 13.210938 9.988281 L 12.339844 9.1875 C 12.148438 9.007812 11.859375 9.007812 11.660156 9.1875 L 10.789062 9.988281 C 10.429688 10.328125 9.960938 10.5 9.488281 10.5 C 9.230469 10.5 8.96875 10.449219 8.71875 10.339844 C 8.019531 10.027344 7.570312 9.339844 7.570312 8.578125 L 7.570312 2.558594 C 7.570312 2.269531 7.308594 2.019531 7.019531 2.058594 C 4.21875 2.410156 3 4.300781 3 7 L 3 17 C 3 20 4.5 22 8 22 L 16 22 C 19.5 22 21 20 21 17 L 21 7 C 21 4.300781 19.78125 2.410156 16.980469 2.058594 Z M 17.5 18.75 L 9 18.75 C 8.589844 18.75 8.25 18.410156 8.25 18 C 8.25 17.589844 8.589844 17.25 9 17.25 L 17.5 17.25 C 17.910156 17.25 18.25 17.589844 18.25 18 C 18.25 18.410156 17.910156 18.75 17.5 18.75 Z M 17.5 14.75 L 13.25 14.75 C 12.839844 14.75 12.5 14.410156 12.5 14 C 12.5 13.589844 12.839844 13.25 13.25 13.25 L 17.5 13.25 C 17.910156 13.25 18.25 13.589844 18.25 14 C 18.25 14.410156 17.910156 14.75 17.5 14.75 Z M 17.5 14.75 "/>
</g>
</svg>
