<?xml version="1.0" encoding="UTF-8"?>
<svg xmlns="http://www.w3.org/2000/svg" xmlns:xlink="http://www.w3.org/1999/xlink" width="24px" height="24px" viewBox="0 0 24 24" version="1.1">
<g id="surface1">
<path style=" stroke:none;fill-rule:nonzero;fill:rgb(74.901962%,74.901962%,74.901962%);fill-opacity:1;" d="M 12 0 C 10.9375 0 9.921875 0.238281 9.253906 1 C 8.585938 1.761719 8.5625 2.574219 8.523438 3.070312 C 8.484375 3.5625 8.453125 3.871094 8.378906 4.0625 C 8.304688 4.253906 8.242188 4.398438 7.773438 4.667969 C 7.308594 4.9375 7.152344 4.917969 6.949219 4.890625 C 6.746094 4.859375 6.464844 4.734375 6.015625 4.519531 C 5.570312 4.304688 4.855469 3.917969 3.863281 4.117188 C 2.871094 4.316406 2.15625 5.078125 1.625 6 C 1.09375 6.917969 0.792969 7.921875 1.117188 8.882812 C 1.441406 9.84375 2.132812 10.269531 2.542969 10.550781 C 2.949219 10.832031 3.199219 11.011719 3.328125 11.171875 C 3.453125 11.332031 3.550781 11.460938 3.550781 12 C 3.550781 12.539062 3.453125 12.667969 3.328125 12.828125 C 3.199219 12.988281 2.949219 13.167969 2.542969 13.449219 C 2.132812 13.730469 1.441406 14.15625 1.117188 15.117188 C 0.792969 16.078125 1.09375 17.082031 1.625 18 C 2.15625 18.921875 2.871094 19.683594 3.863281 19.882812 C 4.855469 20.082031 5.570312 19.695312 6.015625 19.480469 C 6.464844 19.265625 6.746094 19.140625 6.949219 19.109375 C 7.152344 19.082031 7.308594 19.0625 7.773438 19.332031 C 8.242188 19.601562 8.304688 19.746094 8.378906 19.9375 C 8.453125 20.128906 8.484375 20.4375 8.523438 20.929688 C 8.5625 21.425781 8.585938 22.238281 9.253906 23 C 9.921875 23.761719 10.9375 24 12 24 C 13.0625 24 14.078125 23.761719 14.746094 23 C 15.414062 22.238281 15.4375 21.425781 15.476562 20.929688 C 15.515625 20.4375 15.546875 20.128906 15.621094 19.9375 C 15.695312 19.746094 15.757812 19.601562 16.226562 19.332031 C 16.691406 19.0625 16.847656 19.082031 17.050781 19.109375 C 17.253906 19.140625 17.535156 19.265625 17.984375 19.480469 C 18.429688 19.695312 19.144531 20.082031 20.136719 19.882812 C 21.128906 19.683594 21.84375 18.921875 22.375 18 C 22.90625 17.082031 23.207031 16.078125 22.882812 15.117188 C 22.558594 14.15625 21.867188 13.730469 21.457031 13.449219 C 21.050781 13.167969 20.800781 12.988281 20.671875 12.828125 C 20.546875 12.667969 20.449219 12.539062 20.449219 12 C 20.449219 11.460938 20.546875 11.332031 20.671875 11.171875 C 20.800781 11.011719 21.050781 10.832031 21.457031 10.550781 C 21.867188 10.269531 22.558594 9.84375 22.882812 8.882812 C 23.207031 7.921875 22.90625 6.917969 22.375 6 C 21.84375 5.078125 21.128906 4.316406 20.136719 4.117188 C 19.144531 3.917969 18.429688 4.304688 17.984375 4.519531 C 17.535156 4.734375 17.253906 4.859375 17.050781 4.890625 C 16.847656 4.917969 16.691406 4.9375 16.226562 4.667969 C 15.757812 4.398438 15.695312 4.253906 15.621094 4.0625 C 15.546875 3.871094 15.515625 3.5625 15.476562 3.070312 C 15.4375 2.574219 15.414062 1.761719 14.746094 1 C 14.078125 0.238281 13.0625 0 12 0 Z M 12 6.800781 C 14.890625 6.800781 17.199219 9.109375 17.199219 12 C 17.199219 14.890625 14.890625 17.199219 12 17.199219 C 9.113281 17.199219 6.800781 14.890625 6.800781 12 C 6.800781 9.109375 9.113281 6.800781 12 6.800781 Z M 12 6.800781 "/>
<path style=" stroke:none;fill-rule:nonzero;fill:rgb(40.000001%,40.000001%,40.000001%);fill-opacity:1;" d="M 12 8.800781 C 10.246094 8.800781 8.800781 10.25 8.800781 12 C 8.800781 13.75 10.246094 15.199219 12 15.199219 C 13.753906 15.199219 15.199219 13.75 15.199219 12 C 15.199219 10.25 13.753906 8.800781 12 8.800781 Z M 12 8.800781 "/>
</g>
</svg>
