<?xml version="1.0" encoding="UTF-8"?>
<svg xmlns="http://www.w3.org/2000/svg" xmlns:xlink="http://www.w3.org/1999/xlink" width="24px" height="24px" viewBox="0 0 24 24" version="1.1">
<g id="surface1">
<path style=" stroke:none;fill-rule:nonzero;fill:rgb(74.901962%,74.901962%,74.901962%);fill-opacity:1;" d="M 17.75 3 C 19.546875 3 21 4.453125 21 6.25 L 21 17.75 C 21 19.546875 19.546875 21 17.75 21 L 6.25 21 C 4.453125 21 3 19.546875 3 17.75 L 3 6.25 C 3 4.453125 4.453125 3 6.25 3 Z M 9.367188 15.253906 L 7.628906 15.253906 L 7.5625 15.371094 L 7.519531 15.460938 C 7.378906 15.800781 7.503906 16.203125 7.832031 16.394531 C 8.160156 16.585938 8.574219 16.5 8.800781 16.210938 L 8.859375 16.125 Z M 13.292969 10.023438 L 12.421875 11.515625 L 15.078125 16.125 L 15.136719 16.207031 C 15.363281 16.5 15.773438 16.589844 16.105469 16.398438 C 16.433594 16.207031 16.5625 15.808594 16.421875 15.464844 L 16.378906 15.375 L 15.875 14.503906 L 16.75 14.503906 L 16.855469 14.5 C 17.1875 14.453125 17.449219 14.191406 17.496094 13.855469 L 17.5 13.753906 L 17.496094 13.652344 C 17.449219 13.320312 17.1875 13.058594 16.855469 13.011719 L 16.75 13.003906 L 15.011719 13.003906 Z M 13.261719 7.101562 C 12.933594 6.910156 12.523438 6.996094 12.292969 7.285156 L 12.238281 7.371094 L 11.996094 7.78125 L 11.761719 7.375 L 11.707031 7.289062 C 11.503906 7.027344 11.148438 6.929688 10.839844 7.050781 L 10.738281 7.097656 L 10.652344 7.15625 C 10.390625 7.359375 10.292969 7.714844 10.414062 8.023438 L 10.464844 8.125 L 11.125 9.269531 L 8.945312 13.003906 L 7.25 13.003906 L 7.148438 13.011719 C 6.785156 13.0625 6.5 13.375 6.5 13.753906 C 6.5 14.132812 6.785156 14.449219 7.148438 14.5 L 7.25 14.503906 L 13.277344 14.503906 L 12.414062 13.003906 L 10.683594 13.003906 L 13.53125 8.128906 L 13.578125 8.035156 C 13.71875 7.695312 13.589844 7.292969 13.261719 7.101562 Z M 13.261719 7.101562 "/>
</g>
</svg>
