<?xml version="1.0" encoding="UTF-8"?>
<svg xmlns="http://www.w3.org/2000/svg" xmlns:xlink="http://www.w3.org/1999/xlink" width="24px" height="24px" viewBox="0 0 24 24" version="1.1">
<g id="surface1">
<path style=" stroke:none;fill-rule:nonzero;fill:rgb(40.000001%,40.000001%,40.000001%);fill-opacity:1;" d="M 22 4 L 22 7 C 22 8.105469 21.105469 9 20 9 L 15 9 C 13.894531 9 13 8.105469 13 7 L 13 4 C 13 2.894531 13.894531 2 15 2 L 20 2 C 21.105469 2 22 2.894531 22 4 Z M 9 15 L 4 15 C 2.894531 15 2 15.894531 2 17 L 2 20 C 2 21.105469 2.894531 22 4 22 L 9 22 C 10.105469 22 11 21.105469 11 20 L 11 17 C 11 15.894531 10.105469 15 9 15 Z M 9 15 "/>
<path style=" stroke:none;fill-rule:nonzero;fill:rgb(74.901962%,74.901962%,74.901962%);fill-opacity:1;" d="M 11 4 L 11 11 C 11 12.105469 10.105469 13 9 13 L 4 13 C 2.894531 13 2 12.105469 2 11 L 2 4 C 2 2.894531 2.894531 2 4 2 L 9 2 C 10.105469 2 11 2.894531 11 4 Z M 20 11 L 15 11 C 13.894531 11 13 11.894531 13 13 L 13 20 C 13 21.105469 13.894531 22 15 22 L 20 22 C 21.105469 22 22 21.105469 22 20 L 22 13 C 22 11.894531 21.105469 11 20 11 Z M 20 11 "/>
</g>
</svg>
