<?xml version="1.0" encoding="UTF-8"?>
<svg xmlns="http://www.w3.org/2000/svg" xmlns:xlink="http://www.w3.org/1999/xlink" width="24px" height="24px" viewBox="0 0 24 24" version="1.1">
<g id="surface1">
<path style=" stroke:none;fill-rule:nonzero;fill:rgb(74.901962%,74.901962%,74.901962%);fill-opacity:1;" d="M 19.554688 0 L 4.445312 0 C 2.410156 0 0.753906 1.65625 0.753906 3.691406 L 0.753906 16.277344 C 0.753906 18.3125 2.410156 19.96875 4.445312 19.96875 L 6.949219 19.96875 L 11.375 23.769531 C 11.734375 24.078125 12.265625 24.078125 12.625 23.769531 L 17.050781 19.96875 L 19.554688 19.96875 C 21.589844 19.96875 23.246094 18.3125 23.246094 16.277344 L 23.246094 3.691406 C 23.246094 1.65625 21.589844 0 19.554688 0 Z M 7.96875 5.449219 C 8.320312 4.789062 9.285156 4.761719 9.652344 5.449219 C 9.824219 5.765625 9.796875 6.148438 9.605469 6.429688 C 9.230469 7 8.382812 6.992188 8.015625 6.429688 C 7.820312 6.144531 7.796875 5.761719 7.96875 5.449219 Z M 4.824219 5.449219 C 5.175781 4.785156 6.144531 4.761719 6.511719 5.449219 C 6.679688 5.769531 6.652344 6.152344 6.460938 6.429688 C 6.085938 7.003906 5.238281 6.988281 4.871094 6.429688 C 4.683594 6.15625 4.648438 5.773438 4.824219 5.449219 Z M 4.824219 9.535156 C 5.167969 8.890625 6.070312 8.859375 6.460938 9.453125 C 6.703125 9.820312 6.664062 10.277344 6.40625 10.589844 C 6.023438 11.0625 5.300781 11.050781 4.925781 10.589844 C 4.675781 10.285156 4.644531 9.867188 4.824219 9.535156 Z M 12 15.027344 L 5.667969 15.027344 C 5.136719 15.027344 4.710938 14.597656 4.710938 14.070312 C 4.710938 13.539062 5.136719 13.113281 5.667969 13.113281 L 12 13.113281 C 12.527344 13.113281 12.957031 13.539062 12.957031 14.070312 C 12.957031 14.597656 12.527344 15.027344 12 15.027344 Z M 11.203125 9.453125 C 11.589844 8.867188 12.496094 8.878906 12.84375 9.535156 C 13.050781 9.921875 12.960938 10.378906 12.675781 10.660156 C 12.335938 11 11.78125 11.042969 11.394531 10.722656 C 11.023438 10.421875 10.925781 9.878906 11.203125 9.453125 Z M 15.867188 14.746094 C 15.464844 15.148438 14.804688 15.109375 14.449219 14.675781 C 14.160156 14.320312 14.164062 13.816406 14.449219 13.460938 C 14.824219 13.003906 15.53125 12.988281 15.929688 13.460938 C 16.261719 13.886719 16.1875 14.425781 15.867188 14.746094 Z M 19.074219 14.675781 C 18.679688 15.15625 17.964844 15.128906 17.59375 14.675781 C 17.339844 14.367188 17.3125 13.949219 17.488281 13.617188 C 17.84375 12.957031 18.808594 12.929688 19.175781 13.617188 C 19.351562 13.945312 19.328125 14.363281 19.074219 14.675781 Z M 19.074219 10.589844 C 18.683594 11.066406 17.96875 11.046875 17.59375 10.589844 C 17.289062 10.21875 17.320312 9.703125 17.59375 9.378906 C 17.960938 8.925781 18.679688 8.894531 19.074219 9.378906 C 19.351562 9.710938 19.371094 10.222656 19.074219 10.589844 Z M 18.332031 6.855469 L 12 6.855469 C 11.472656 6.855469 11.042969 6.429688 11.042969 5.898438 C 11.042969 5.371094 11.472656 4.941406 12 4.941406 L 18.332031 4.941406 C 18.863281 4.941406 19.289062 5.371094 19.289062 5.898438 C 19.289062 6.429688 18.863281 6.855469 18.332031 6.855469 Z M 18.332031 6.855469 "/>
</g>
</svg>
