<?xml version="1.0" encoding="UTF-8"?>
<svg xmlns="http://www.w3.org/2000/svg" xmlns:xlink="http://www.w3.org/1999/xlink" width="24px" height="24px" viewBox="0 0 24 24" version="1.1">
<g id="surface1">
<path style=" stroke:none;fill-rule:nonzero;fill:rgb(74.901962%,74.901962%,74.901962%);fill-opacity:1;" d="M 11.257812 13 L 11.492188 11.5 L 12.976562 11.5 L 12.738281 13 Z M 11.257812 13 "/>
<path style=" stroke:none;fill-rule:nonzero;fill:rgb(74.901962%,74.901962%,74.901962%);fill-opacity:1;" d="M 17.75 2 C 18.941406 2 19.914062 2.925781 19.996094 4.097656 L 20 4.25 L 20 19.75 C 20 20.941406 19.074219 21.914062 17.902344 21.992188 L 17.75 22 L 6.25 22 C 5.058594 22 4.085938 21.074219 4.003906 19.902344 L 4 19.75 L 4 4.25 C 4 3.058594 4.925781 2.085938 6.097656 2.007812 L 6.25 2 Z M 12.394531 15.160156 C 12.332031 15.570312 12.609375 15.953125 13.019531 16.019531 C 13.429688 16.082031 13.8125 15.804688 13.875 15.394531 L 14.019531 14.5 L 14.75 14.5 C 15.164062 14.5 15.5 14.164062 15.5 13.75 C 15.5 13.335938 15.164062 13 14.75 13 L 14.257812 13 L 14.492188 11.5 L 15.25 11.5 C 15.664062 11.5 16 11.164062 16 10.75 C 16 10.335938 15.664062 10 15.25 10 L 14.730469 10 L 14.894531 8.976562 C 14.957031 8.566406 14.679688 8.183594 14.269531 8.117188 C 13.859375 8.050781 13.476562 8.332031 13.410156 8.742188 L 13.210938 10 L 11.730469 10 L 11.894531 8.976562 C 11.957031 8.566406 11.679688 8.183594 11.269531 8.117188 C 10.859375 8.050781 10.476562 8.332031 10.410156 8.742188 L 10.210938 10 L 9.25 10 C 8.835938 10 8.5 10.335938 8.5 10.75 C 8.5 11.164062 8.835938 11.5 9.25 11.5 L 9.976562 11.5 L 9.738281 13 L 8.75 13 C 8.335938 13 8 13.335938 8 13.75 C 8 14.164062 8.335938 14.5 8.75 14.5 L 9.5 14.5 L 9.394531 15.160156 C 9.332031 15.570312 9.609375 15.953125 10.019531 16.019531 C 10.429688 16.082031 10.8125 15.804688 10.875 15.394531 L 11.019531 14.5 L 12.5 14.5 Z M 12.394531 15.160156 "/>
</g>
</svg>
