<?xml version="1.0" encoding="UTF-8"?>
<svg xmlns="http://www.w3.org/2000/svg" xmlns:xlink="http://www.w3.org/1999/xlink" width="24px" height="24px" viewBox="0 0 24 24" version="1.1">
<g id="surface1">
<path style=" stroke:none;fill-rule:evenodd;fill:rgb(74.901962%,74.901962%,74.901962%);fill-opacity:1;" d="M 12 2 C 17.523438 2 22 6.476562 22 12 C 22 17.523438 17.523438 22 12 22 C 6.476562 22 2 17.523438 2 12 C 2 6.476562 6.476562 2 12 2 Z M 13.003906 11 L 11.003906 11 L 11.003906 17 L 13.003906 17 Z M 12.011719 6.75 C 11.28125 6.75 10.753906 7.277344 10.753906 7.984375 C 10.753906 8.726562 11.265625 9.25 12.011719 9.25 C 12.722656 9.25 13.253906 8.726562 13.253906 8 C 13.253906 7.277344 12.722656 6.75 12.011719 6.75 Z M 12.011719 6.75 "/>
</g>
</svg>
