<?xml version="1.0" encoding="UTF-8"?>
<svg xmlns="http://www.w3.org/2000/svg" xmlns:xlink="http://www.w3.org/1999/xlink" width="24px" height="24px" viewBox="0 0 24 24" version="1.1">
<g id="surface1">
<path style="fill:none;stroke-width:2;stroke-linecap:round;stroke-linejoin:round;stroke:rgb(74.901962%,74.901962%,74.901962%);stroke-opacity:1;stroke-miterlimit:4;" d="M 7 6 L 7 18 M 14 6 L 14 18 M 21 6 L 21 18 M 10 6.5 L 10 17.5 C 10 17.777344 10.222656 18 10.5 18 C 10.777344 18 11 17.777344 11 17.5 L 11 6.5 C 11 6.222656 10.777344 6 10.5 6 C 10.222656 6 10 6.222656 10 6.5 Z M 17 6.5 L 17 17.5 C 17 17.777344 17.222656 18 17.5 18 C 17.777344 18 18 17.777344 18 17.5 L 18 6.5 C 18 6.222656 17.777344 6 17.5 6 C 17.222656 6 17 6.222656 17 6.5 Z M 3.5 6 C 3.222656 6 3 6.222656 3 6.5 L 3 17.5 C 3 17.777344 3.222656 18 3.5 18 C 3.777344 18 4 17.777344 4 17.5 L 4 6.5 C 4 6.222656 3.777344 6 3.5 6 Z M 3.5 6 "/>
</g>
</svg>
