<?xml version="1.0" encoding="UTF-8"?>
<svg xmlns="http://www.w3.org/2000/svg" xmlns:xlink="http://www.w3.org/1999/xlink" width="24px" height="24px" viewBox="0 0 24 24" version="1.1">
<g id="surface1">
<path style=" stroke:none;fill-rule:evenodd;fill:rgb(74.901962%,74.901962%,74.901962%);fill-opacity:1;" d="M 3.464844 3.464844 C 2 4.929688 2 7.285156 2 12 C 2 16.714844 2 19.070312 3.464844 20.535156 C 4.929688 22 7.285156 22 12 22 C 16.714844 22 19.070312 22 20.535156 20.535156 C 22 19.070312 22 16.714844 22 12 C 22 7.285156 22 4.929688 20.535156 3.464844 C 19.070312 2 16.714844 2 12 2 C 7.285156 2 4.929688 2 3.464844 3.464844 Z M 13.488281 6.445312 C 13.886719 6.554688 14.125 6.964844 14.019531 7.363281 L 11.429688 17.023438 C 11.324219 17.421875 10.910156 17.660156 10.511719 17.554688 C 10.113281 17.445312 9.875 17.035156 9.980469 16.636719 L 12.570312 6.976562 C 12.675781 6.574219 13.089844 6.339844 13.488281 6.445312 Z M 14.96875 8.46875 C 15.261719 8.175781 15.738281 8.175781 16.03125 8.46875 L 16.238281 8.679688 C 16.875 9.3125 17.402344 9.84375 17.769531 10.320312 C 18.152344 10.824219 18.421875 11.355469 18.421875 12 C 18.421875 12.644531 18.152344 13.175781 17.769531 13.679688 C 17.402344 14.15625 16.875 14.6875 16.238281 15.320312 L 16.03125 15.53125 C 15.738281 15.824219 15.261719 15.824219 14.96875 15.53125 C 14.675781 15.238281 14.675781 14.761719 14.96875 14.46875 L 15.140625 14.296875 C 15.824219 13.617188 16.28125 13.15625 16.574219 12.769531 C 16.859375 12.398438 16.921875 12.183594 16.921875 12 C 16.921875 11.816406 16.859375 11.601562 16.574219 11.230469 C 16.28125 10.84375 15.824219 10.382812 15.140625 9.703125 L 14.96875 9.53125 C 14.675781 9.238281 14.675781 8.761719 14.96875 8.46875 Z M 7.96875 8.46875 C 8.261719 8.175781 8.738281 8.175781 9.03125 8.46875 C 9.324219 8.761719 9.324219 9.238281 9.03125 9.53125 L 8.859375 9.703125 C 8.175781 10.382812 7.71875 10.84375 7.425781 11.230469 C 7.140625 11.601562 7.078125 11.816406 7.078125 12 C 7.078125 12.183594 7.140625 12.398438 7.425781 12.769531 C 7.71875 13.15625 8.175781 13.617188 8.859375 14.296875 L 9.03125 14.46875 C 9.324219 14.761719 9.324219 15.238281 9.03125 15.53125 C 8.738281 15.824219 8.261719 15.824219 7.96875 15.53125 L 7.761719 15.320312 C 7.125 14.6875 6.597656 14.15625 6.230469 13.679688 C 5.847656 13.175781 5.578125 12.644531 5.578125 12 C 5.578125 11.355469 5.847656 10.824219 6.230469 10.320312 C 6.597656 9.84375 7.125 9.3125 7.761719 8.679688 Z M 7.96875 8.46875 "/>
</g>
</svg>
