<?xml version="1.0" encoding="UTF-8"?>
<svg xmlns="http://www.w3.org/2000/svg" xmlns:xlink="http://www.w3.org/1999/xlink" width="24px" height="24px" viewBox="0 0 24 24" version="1.1">
<g id="surface1">
<path style=" stroke:none;fill-rule:evenodd;fill:rgb(74.901962%,74.901962%,74.901962%);fill-opacity:1;" d="M 19 21 L 5 21 C 3.875 21 3.074219 20.507812 2.589844 19.835938 C 2.210938 19.296875 2.003906 18.65625 2 18 L 2 6 C 2 4.34375 3.34375 3 5 3 L 15 3 C 16.65625 3 18 4.34375 18 6 L 18 11 L 21 11 C 21.550781 11 22 11.449219 22 12 L 22 18 C 22 18.492188 21.859375 19.210938 21.410156 19.835938 C 20.925781 20.511719 20.125 21 19 21 Z M 20 14 C 20 13.449219 19.550781 13 19 13 C 18.449219 13 18 13.449219 18 14 L 18 18 C 18 18.550781 18.449219 19 19 19 C 19.550781 19 20 18.550781 20 18 Z M 20 14 "/>
</g>
</svg>
